<svg id="svg" version="1.1" xmlns="http://www.w3.org/2000/svg" xmlns:xlink="http://www.w3.org/1999/xlink" width="400" height="400" viewBox="0, 0, 400,400"><g id="svgg"><path id="path0" d="M182.200 0.275 C 180.660 0.366,179.229 0.612,179.020 0.820 C 178.811 1.029,177.596 1.200,176.320 1.200 C 175.040 1.200,174.000 1.379,174.000 1.600 C 174.000 1.820,173.100 2.000,172.000 2.000 C 170.900 2.000,170.000 2.180,170.000 2.400 C 170.000 2.620,169.280 2.800,168.400 2.800 C 167.520 2.800,166.800 2.961,166.800 3.158 C 166.800 3.355,166.125 3.618,165.300 3.743 C 161.791 4.273,160.780 4.508,160.573 4.844 C 160.452 5.040,159.834 5.200,159.200 5.200 C 158.566 5.200,157.936 5.380,157.800 5.600 C 157.664 5.820,157.201 6.000,156.771 6.000 C 156.341 6.000,155.632 6.180,155.195 6.400 C 154.758 6.620,154.042 6.980,153.605 7.200 C 153.168 7.420,152.459 7.600,152.029 7.600 C 151.599 7.600,151.136 7.780,151.000 8.000 C 150.864 8.220,150.313 8.400,149.776 8.400 C 149.239 8.400,148.800 8.580,148.800 8.800 C 148.800 9.020,148.451 9.200,148.024 9.200 C 147.597 9.200,147.146 9.364,147.022 9.565 C 146.897 9.766,146.077 10.052,145.198 10.200 C 144.319 10.349,143.600 10.634,143.600 10.835 C 143.600 11.036,143.364 11.200,143.075 11.200 C 142.786 11.200,141.805 11.560,140.894 12.000 C 139.984 12.440,138.960 12.800,138.619 12.800 C 138.279 12.800,137.999 12.935,137.999 13.100 C 137.998 13.265,137.008 13.850,135.800 14.400 C 134.592 14.950,133.602 15.535,133.601 15.700 C 133.601 15.865,133.274 16.000,132.875 16.000 C 132.477 16.000,131.764 16.360,131.292 16.800 C 130.820 17.240,130.156 17.600,129.817 17.600 C 129.478 17.600,129.200 17.780,129.200 18.000 C 129.200 18.220,128.930 18.400,128.600 18.400 C 128.270 18.400,128.000 18.580,128.000 18.800 C 128.000 19.020,127.764 19.200,127.475 19.200 C 127.187 19.200,126.564 19.560,126.092 20.000 C 125.620 20.440,124.996 20.800,124.705 20.800 C 124.414 20.800,123.917 21.160,123.600 21.600 C 123.283 22.040,122.743 22.400,122.400 22.400 C 122.057 22.400,121.517 22.760,121.200 23.200 C 120.883 23.640,120.343 24.000,120.000 24.000 C 119.657 24.000,119.117 24.360,118.800 24.800 C 118.483 25.240,118.085 25.600,117.915 25.600 C 117.624 25.600,116.464 26.426,111.844 29.920 C 110.768 30.734,108.927 32.345,107.753 33.500 C 106.578 34.655,105.478 35.604,105.309 35.609 C 104.866 35.621,100.400 39.865,100.400 40.273 C 100.400 40.676,150.056 90.376,150.968 90.886 C 151.427 91.143,152.059 90.762,153.405 89.417 C 154.404 88.417,155.351 87.598,155.511 87.597 C 155.670 87.595,156.463 86.965,157.273 86.197 C 158.084 85.428,158.899 84.800,159.085 84.800 C 159.271 84.800,159.683 84.440,160.000 84.000 C 160.317 83.560,160.857 83.200,161.200 83.200 C 161.543 83.200,162.083 82.840,162.400 82.400 C 162.717 81.960,163.297 81.600,163.688 81.600 C 164.080 81.600,164.400 81.420,164.400 81.200 C 164.400 80.980,164.720 80.800,165.112 80.800 C 165.503 80.800,166.083 80.440,166.400 80.000 C 166.717 79.560,167.297 79.200,167.688 79.200 C 168.080 79.200,168.400 79.020,168.400 78.800 C 168.400 78.580,168.760 78.400,169.200 78.400 C 169.640 78.400,170.000 78.220,170.000 78.000 C 170.000 77.780,170.360 77.600,170.800 77.600 C 171.240 77.600,171.600 77.420,171.600 77.200 C 171.600 76.980,172.050 76.800,172.600 76.800 C 173.150 76.800,173.600 76.620,173.600 76.400 C 173.600 76.180,173.960 76.000,174.400 76.000 C 174.840 76.000,175.200 75.843,175.200 75.652 C 175.200 75.460,176.135 75.179,177.277 75.028 C 178.419 74.876,179.544 74.629,179.777 74.479 C 180.705 73.881,183.070 73.212,184.276 73.206 C 184.978 73.203,185.664 73.020,185.800 72.800 C 185.936 72.580,186.922 72.400,187.990 72.400 C 189.059 72.400,189.993 72.229,190.067 72.019 C 190.140 71.809,192.180 71.610,194.600 71.575 C 197.020 71.541,199.233 71.324,199.517 71.093 C 199.881 70.798,200.171 70.811,200.497 71.137 C 200.793 71.433,202.584 71.600,205.456 71.600 C 208.023 71.600,210.059 71.772,210.200 72.000 C 210.336 72.220,211.326 72.400,212.400 72.400 C 213.474 72.400,214.464 72.580,214.600 72.800 C 214.736 73.020,215.456 73.200,216.200 73.200 C 216.944 73.200,217.664 73.380,217.800 73.600 C 217.936 73.820,218.476 74.000,219.000 74.000 C 219.524 74.000,220.056 74.167,220.183 74.372 C 220.309 74.577,221.400 74.867,222.606 75.018 C 223.813 75.169,224.800 75.451,224.800 75.646 C 224.800 75.841,225.160 76.000,225.600 76.000 C 226.040 76.000,226.400 76.180,226.400 76.400 C 226.400 76.620,226.724 76.800,227.120 76.800 C 228.014 76.800,229.993 77.694,229.997 78.100 C 229.999 78.265,230.360 78.400,230.800 78.400 C 231.240 78.400,231.600 78.580,231.600 78.800 C 231.600 79.020,231.878 79.200,232.217 79.200 C 232.556 79.200,233.220 79.560,233.692 80.000 C 234.164 80.440,234.787 80.800,235.075 80.800 C 235.364 80.800,235.600 80.980,235.600 81.200 C 235.600 81.420,235.920 81.600,236.312 81.600 C 236.703 81.600,237.283 81.960,237.600 82.400 C 237.917 82.840,238.457 83.200,238.800 83.200 C 239.143 83.200,239.683 83.560,240.000 84.000 C 240.317 84.440,240.781 84.800,241.030 84.800 C 241.280 84.800,242.299 85.565,243.296 86.500 C 244.293 87.435,245.953 88.920,246.984 89.800 C 249.729 92.141,252.000 94.441,252.000 94.880 C 252.000 95.090,252.720 95.954,253.600 96.800 C 254.480 97.646,255.200 98.505,255.200 98.709 C 255.200 98.914,255.740 99.646,256.400 100.337 C 257.060 101.028,257.600 101.798,257.600 102.049 C 257.600 102.301,257.918 102.797,258.306 103.153 C 258.694 103.509,259.543 104.880,260.193 106.200 C 260.843 107.520,261.515 108.660,261.687 108.733 C 261.859 108.807,262.000 109.212,262.000 109.633 C 262.000 110.055,262.180 110.400,262.400 110.400 C 262.620 110.400,262.800 110.760,262.800 111.200 C 262.800 111.640,262.980 112.000,263.200 112.000 C 263.420 112.000,263.600 112.439,263.600 112.976 C 263.600 113.513,263.780 114.064,264.000 114.200 C 264.220 114.336,264.400 114.797,264.400 115.224 C 264.400 115.651,264.580 116.000,264.800 116.000 C 265.020 116.000,265.200 116.540,265.200 117.200 C 265.200 117.860,265.380 118.400,265.600 118.400 C 265.820 118.400,266.000 118.839,266.000 119.376 C 266.000 119.913,266.180 120.464,266.400 120.600 C 266.620 120.736,266.800 121.377,266.800 122.024 C 266.800 122.671,266.980 123.200,267.200 123.200 C 267.420 123.200,267.600 123.909,267.600 124.776 C 267.600 125.643,267.780 126.464,268.000 126.600 C 268.220 126.736,268.400 127.737,268.400 128.824 C 268.400 129.911,268.580 130.800,268.800 130.800 C 269.056 130.800,269.200 134.333,269.200 140.600 C 269.200 146.867,269.056 150.400,268.800 150.400 C 268.580 150.400,268.400 151.030,268.400 151.800 C 268.400 152.570,268.589 153.200,268.819 153.200 C 269.049 153.200,283.196 139.250,300.255 122.200 C 317.315 105.150,331.526 91.200,331.836 91.200 C 332.146 91.200,332.400 91.020,332.400 90.800 C 332.400 90.580,332.220 90.400,332.000 90.400 C 331.780 90.400,331.600 89.860,331.600 89.200 C 331.600 88.540,331.420 88.000,331.200 88.000 C 330.980 88.000,330.800 87.640,330.800 87.200 C 330.800 86.760,330.620 86.400,330.400 86.400 C 330.180 86.400,330.000 85.860,330.000 85.200 C 330.000 84.540,329.820 84.000,329.600 84.000 C 329.380 84.000,329.200 83.640,329.200 83.200 C 329.200 82.760,329.020 82.400,328.800 82.400 C 328.580 82.400,328.400 82.040,328.400 81.600 C 328.400 81.160,328.220 80.800,328.000 80.800 C 327.780 80.800,327.600 80.440,327.600 80.000 C 327.600 79.560,327.420 79.200,327.200 79.200 C 326.980 79.200,326.800 78.840,326.800 78.400 C 326.800 77.960,326.620 77.600,326.400 77.600 C 326.180 77.600,326.000 77.330,326.000 77.000 C 326.000 76.670,325.836 76.400,325.635 76.400 C 325.434 76.400,325.149 75.680,325.000 74.800 C 324.851 73.920,324.566 73.200,324.365 73.200 C 324.164 73.200,324.000 72.840,324.000 72.400 C 324.000 71.960,323.841 71.600,323.647 71.600 C 323.452 71.600,323.193 71.285,323.071 70.900 C 322.854 70.213,321.595 67.994,321.199 67.600 C 321.089 67.490,320.744 66.905,320.432 66.300 C 320.120 65.695,319.715 65.200,319.532 65.200 C 319.350 65.200,319.200 64.840,319.200 64.400 C 319.200 63.960,319.050 63.600,318.868 63.600 C 318.685 63.600,318.281 63.105,317.970 62.500 C 317.660 61.895,317.089 61.109,316.703 60.753 C 316.316 60.397,316.000 59.942,316.000 59.741 C 316.000 59.541,315.640 59.117,315.200 58.800 C 314.760 58.483,314.400 57.975,314.400 57.672 C 314.400 57.369,313.860 56.617,313.200 56.000 C 312.540 55.383,312.000 54.667,312.000 54.408 C 312.000 54.149,311.280 53.246,310.400 52.400 C 309.520 51.554,308.800 50.611,308.800 50.303 C 308.800 49.996,308.395 49.376,307.900 48.926 C 307.405 48.476,305.920 46.889,304.600 45.400 C 300.961 41.295,297.954 38.289,296.400 37.200 C 295.630 36.661,293.975 35.180,292.722 33.910 C 291.469 32.639,290.345 31.600,290.223 31.600 C 290.101 31.600,289.334 30.970,288.518 30.200 C 287.701 29.430,286.918 28.800,286.778 28.800 C 286.554 28.800,285.894 28.306,284.117 26.807 C 283.851 26.583,283.396 26.400,283.105 26.400 C 282.814 26.400,282.317 26.040,282.000 25.600 C 281.683 25.160,281.238 24.800,281.012 24.799 C 280.785 24.799,279.970 24.259,279.200 23.600 C 278.430 22.941,277.575 22.401,277.300 22.401 C 277.025 22.400,276.800 22.220,276.800 22.000 C 276.800 21.780,276.558 21.600,276.262 21.600 C 275.966 21.600,275.398 21.240,275.000 20.800 C 274.602 20.360,274.034 20.000,273.738 20.000 C 273.442 20.000,273.200 19.820,273.200 19.600 C 273.200 19.380,272.964 19.200,272.675 19.200 C 272.387 19.200,271.764 18.840,271.292 18.400 C 270.820 17.960,270.156 17.600,269.817 17.600 C 269.478 17.600,269.200 17.420,269.200 17.200 C 269.200 16.980,268.840 16.800,268.400 16.800 C 267.960 16.800,267.600 16.620,267.600 16.400 C 267.600 16.180,267.240 16.000,266.800 16.000 C 266.360 16.000,266.000 15.820,266.000 15.600 C 266.000 15.380,265.640 15.200,265.200 15.200 C 264.760 15.200,264.399 15.065,264.397 14.900 C 264.393 14.541,262.456 13.600,261.720 13.600 C 261.434 13.600,261.200 13.420,261.200 13.200 C 261.200 12.980,260.840 12.800,260.400 12.800 C 259.960 12.800,259.600 12.664,259.600 12.498 C 259.600 12.331,259.015 11.960,258.300 11.671 C 257.585 11.383,256.707 10.992,256.349 10.801 C 255.991 10.611,255.046 10.332,254.249 10.183 C 253.452 10.033,252.800 9.751,252.800 9.555 C 252.800 9.360,252.260 9.200,251.600 9.200 C 250.940 9.200,250.400 9.020,250.400 8.800 C 250.400 8.580,250.040 8.400,249.600 8.400 C 249.160 8.400,248.800 8.220,248.800 8.000 C 248.800 7.780,248.260 7.600,247.600 7.600 C 246.940 7.600,246.400 7.420,246.400 7.200 C 246.400 6.980,245.860 6.800,245.200 6.800 C 244.540 6.800,244.000 6.620,244.000 6.400 C 244.000 6.180,243.460 6.000,242.800 6.000 C 242.140 6.000,241.600 5.820,241.600 5.600 C 241.600 5.380,241.161 5.200,240.624 5.200 C 240.087 5.200,239.536 5.020,239.400 4.800 C 239.264 4.580,238.533 4.400,237.776 4.400 C 237.019 4.400,236.400 4.220,236.400 4.000 C 236.400 3.780,235.680 3.600,234.800 3.600 C 233.920 3.600,233.200 3.420,233.200 3.200 C 233.200 2.980,232.480 2.800,231.600 2.800 C 230.720 2.800,230.000 2.620,230.000 2.400 C 230.000 2.180,229.100 2.000,228.000 2.000 C 226.900 2.000,226.000 1.820,226.000 1.600 C 226.000 1.380,225.046 1.200,223.880 1.200 C 222.714 1.200,221.540 0.980,221.272 0.712 C 220.786 0.226,189.029 -0.128,182.200 0.275 " stroke="none" fill="#4482f1" fill-rule="evenodd"></path><path id="path1" d="M98.800 41.506 C 98.800 41.705,98.035 42.673,97.100 43.656 C 93.296 47.655,91.200 50.058,91.200 50.419 C 91.200 50.628,91.020 50.800,90.800 50.800 C 90.580 50.800,90.400 50.980,90.400 51.200 C 90.400 51.419,89.680 52.341,88.800 53.248 C 87.920 54.155,87.200 55.063,87.200 55.266 C 87.200 55.470,86.750 56.086,86.200 56.636 C 85.650 57.186,85.200 57.800,85.200 58.000 C 85.200 58.200,84.795 58.777,84.300 59.282 C 83.805 59.787,83.145 60.695,82.832 61.300 C 82.520 61.905,82.115 62.400,81.932 62.400 C 81.750 62.400,81.600 62.670,81.600 63.000 C 81.600 63.330,81.442 63.600,81.249 63.600 C 81.055 63.600,80.673 64.140,80.400 64.800 C 80.127 65.460,79.745 66.000,79.551 66.000 C 79.358 66.000,79.200 66.197,79.200 66.438 C 79.200 66.679,78.852 67.365,78.427 67.963 C 78.001 68.560,77.522 69.578,77.363 70.224 C 77.203 70.871,76.741 71.691,76.336 72.047 C 75.931 72.403,75.600 72.988,75.600 73.347 C 75.600 73.706,75.420 74.000,75.200 74.000 C 74.980 74.000,74.800 74.360,74.800 74.800 C 74.800 75.240,74.620 75.600,74.400 75.600 C 74.180 75.600,74.000 75.945,74.000 76.367 C 74.000 76.788,73.865 77.193,73.700 77.267 C 73.535 77.340,72.975 78.300,72.456 79.400 C 71.937 80.500,71.352 81.713,71.156 82.095 C 70.960 82.477,70.800 83.062,70.800 83.395 C 70.800 83.728,70.620 84.000,70.400 84.000 C 70.180 84.000,70.000 84.360,70.000 84.800 C 70.000 85.240,69.820 85.600,69.600 85.600 C 69.380 85.600,69.200 86.039,69.200 86.576 C 69.200 87.113,69.020 87.664,68.800 87.800 C 68.580 87.936,68.400 88.397,68.400 88.824 C 68.400 89.251,68.220 89.600,68.000 89.600 C 67.780 89.600,67.600 89.962,67.600 90.405 C 67.600 90.848,67.420 91.568,67.200 92.005 C 66.980 92.442,66.620 93.158,66.400 93.595 C 66.180 94.032,66.000 94.741,66.000 95.171 C 66.000 95.601,65.820 96.064,65.600 96.200 C 65.380 96.336,65.200 96.876,65.200 97.400 C 65.200 97.924,65.020 98.464,64.800 98.600 C 64.580 98.736,64.400 99.366,64.400 100.000 C 64.400 100.634,64.220 101.264,64.000 101.400 C 63.780 101.536,63.600 102.166,63.600 102.800 C 63.600 103.434,63.420 104.064,63.200 104.200 C 62.980 104.336,62.800 105.157,62.800 106.024 C 62.800 106.891,62.620 107.600,62.400 107.600 C 62.180 107.600,62.000 108.309,62.000 109.176 C 62.000 110.043,61.820 110.864,61.600 111.000 C 61.380 111.136,61.200 111.878,61.200 112.650 C 61.200 113.421,61.024 114.382,60.809 114.784 C 60.593 115.186,60.296 117.784,60.148 120.558 C 59.999 123.331,59.726 125.600,59.539 125.600 C 59.353 125.600,59.200 132.710,59.200 141.400 C 59.200 151.667,59.340 157.200,59.600 157.200 C 59.830 157.200,60.012 158.519,60.028 160.300 C 60.059 163.593,60.494 167.860,61.201 171.800 C 61.437 173.120,61.733 174.920,61.857 175.800 C 61.981 176.680,62.244 177.571,62.441 177.780 C 62.638 177.989,62.800 178.833,62.800 179.656 C 62.800 180.479,62.980 181.264,63.200 181.400 C 63.420 181.536,63.600 182.256,63.600 183.000 C 63.600 183.744,63.780 184.464,64.000 184.600 C 64.220 184.736,64.400 185.456,64.400 186.200 C 64.400 186.944,64.580 187.664,64.800 187.800 C 65.020 187.936,65.200 188.476,65.200 189.000 C 65.200 189.524,65.380 190.064,65.600 190.200 C 65.820 190.336,66.000 191.067,66.000 191.824 C 66.000 192.581,66.180 193.200,66.400 193.200 C 66.620 193.200,66.800 193.740,66.800 194.400 C 66.800 195.060,66.980 195.600,67.200 195.600 C 67.420 195.600,67.600 196.140,67.600 196.800 C 67.600 197.460,67.780 198.000,68.000 198.000 C 68.220 198.000,68.400 198.540,68.400 199.200 C 68.400 199.860,68.580 200.400,68.800 200.400 C 69.020 200.400,69.200 200.940,69.200 201.600 C 69.200 202.260,69.380 202.800,69.600 202.800 C 69.820 202.800,70.000 203.250,70.000 203.800 C 70.000 204.350,70.180 204.800,70.400 204.800 C 70.620 204.800,70.800 205.250,70.800 205.800 C 70.800 206.350,70.980 206.800,71.200 206.800 C 71.420 206.800,71.600 207.250,71.600 207.800 C 71.600 208.350,71.780 208.800,72.000 208.800 C 72.220 208.800,72.400 209.160,72.400 209.600 C 72.400 210.040,72.580 210.400,72.800 210.400 C 73.020 210.400,73.200 210.940,73.200 211.600 C 73.200 212.260,73.380 212.800,73.600 212.800 C 73.820 212.800,74.000 213.160,74.000 213.600 C 74.000 214.040,74.180 214.400,74.400 214.400 C 74.620 214.400,74.800 214.760,74.800 215.200 C 74.800 215.640,74.980 216.000,75.200 216.000 C 75.420 216.000,75.600 216.439,75.600 216.976 C 75.600 217.513,75.780 218.064,76.000 218.200 C 76.220 218.336,76.400 218.797,76.400 219.224 C 76.400 219.651,76.580 220.000,76.800 220.000 C 77.020 220.000,77.200 220.297,77.200 220.660 C 77.200 221.437,79.228 225.739,79.685 225.933 C 79.858 226.007,80.000 226.412,80.000 226.833 C 80.000 227.255,80.180 227.600,80.400 227.600 C 80.620 227.600,80.800 227.945,80.800 228.367 C 80.800 228.788,80.935 229.193,81.100 229.267 C 81.476 229.434,82.775 231.564,83.071 232.500 C 83.193 232.885,83.452 233.200,83.647 233.200 C 83.841 233.200,84.000 233.560,84.000 234.000 C 84.000 234.440,84.180 234.800,84.400 234.800 C 84.620 234.800,84.800 235.160,84.800 235.600 C 84.800 236.040,84.980 236.400,85.200 236.400 C 85.420 236.400,85.600 236.670,85.600 237.000 C 85.600 237.330,85.780 237.600,86.000 237.600 C 86.220 237.600,86.400 237.870,86.400 238.200 C 86.400 238.530,86.536 238.800,86.702 238.800 C 86.869 238.800,87.260 239.385,87.572 240.100 C 87.884 240.815,88.468 241.691,88.870 242.047 C 89.271 242.403,89.600 242.905,89.600 243.164 C 89.600 243.422,89.960 244.020,90.400 244.492 C 90.840 244.964,91.200 245.587,91.200 245.875 C 91.200 246.164,91.380 246.400,91.600 246.400 C 91.820 246.400,92.000 246.720,92.000 247.112 C 92.000 247.503,92.360 248.083,92.800 248.400 C 93.240 248.717,93.600 249.204,93.600 249.483 C 93.600 250.039,97.960 256.519,98.478 256.733 C 98.655 256.807,98.800 257.120,98.800 257.430 C 98.800 257.740,99.160 258.218,99.600 258.493 C 100.040 258.768,100.400 259.237,100.400 259.536 C 100.400 259.835,100.940 260.583,101.600 261.200 C 102.260 261.817,102.800 262.520,102.800 262.764 C 102.800 263.008,103.340 263.772,104.000 264.463 C 104.660 265.154,105.200 265.890,105.200 266.099 C 105.200 266.308,105.740 266.983,106.400 267.600 C 107.060 268.217,107.600 268.892,107.600 269.101 C 107.600 269.310,108.140 270.046,108.800 270.737 C 109.460 271.428,110.000 272.139,110.000 272.318 C 110.000 272.497,110.647 273.350,111.438 274.214 C 112.230 275.078,113.258 276.328,113.723 276.992 C 114.188 277.657,115.071 278.677,115.685 279.260 C 116.298 279.844,116.800 280.501,116.800 280.720 C 116.800 280.939,117.700 282.038,118.800 283.161 C 119.900 284.285,120.800 285.367,120.800 285.567 C 120.800 285.767,121.880 287.027,123.200 288.368 C 124.520 289.708,125.600 290.902,125.600 291.021 C 125.600 291.139,126.050 291.686,126.600 292.236 C 127.150 292.786,127.600 293.408,127.600 293.618 C 127.600 293.828,127.823 294.000,128.096 294.000 C 128.748 294.000,212.400 210.355,212.400 209.703 C 212.400 209.098,210.128 209.015,209.929 209.612 C 209.840 209.879,206.359 210.024,200.000 210.024 C 193.641 210.024,190.160 209.879,190.071 209.612 C 189.995 209.385,188.958 209.200,187.767 209.200 C 186.575 209.200,185.600 209.020,185.600 208.800 C 185.600 208.580,184.880 208.400,184.000 208.400 C 183.120 208.400,182.400 208.220,182.400 208.000 C 182.400 207.780,181.860 207.600,181.200 207.600 C 180.540 207.600,180.000 207.420,180.000 207.200 C 180.000 206.980,179.460 206.800,178.800 206.800 C 178.140 206.800,177.600 206.620,177.600 206.400 C 177.600 206.180,177.060 206.000,176.400 206.000 C 175.740 206.000,175.200 205.820,175.200 205.600 C 175.200 205.380,174.840 205.200,174.400 205.200 C 173.960 205.200,173.600 205.020,173.600 204.800 C 173.600 204.580,173.150 204.400,172.600 204.400 C 172.050 204.400,171.600 204.220,171.600 204.000 C 171.600 203.780,171.240 203.600,170.800 203.600 C 170.360 203.600,170.000 203.420,170.000 203.200 C 170.000 202.980,169.640 202.800,169.200 202.800 C 168.760 202.800,168.400 202.620,168.400 202.400 C 168.400 202.180,168.122 202.000,167.783 202.000 C 167.444 202.000,166.780 201.640,166.308 201.200 C 165.836 200.760,165.213 200.400,164.925 200.400 C 164.636 200.400,164.400 200.220,164.400 200.000 C 164.400 199.780,164.080 199.600,163.688 199.600 C 163.297 199.600,162.717 199.240,162.400 198.800 C 162.083 198.360,161.543 198.000,161.200 198.000 C 160.857 198.000,160.317 197.640,160.000 197.200 C 159.683 196.760,159.265 196.400,159.070 196.400 C 158.876 196.400,157.817 195.590,156.716 194.600 C 155.614 193.610,154.550 192.800,154.350 192.800 C 153.893 192.800,148.000 186.932,148.000 186.477 C 148.000 186.293,147.100 185.178,146.000 184.000 C 144.900 182.822,144.000 181.660,144.000 181.418 C 144.000 181.175,143.640 180.717,143.200 180.400 C 142.760 180.083,142.400 179.696,142.400 179.540 C 142.400 179.111,139.457 174.219,139.106 174.067 C 138.938 173.993,138.800 173.588,138.800 173.167 C 138.800 172.745,138.620 172.400,138.400 172.400 C 138.180 172.400,138.000 172.040,138.000 171.600 C 138.000 171.160,137.820 170.800,137.600 170.800 C 137.380 170.800,137.200 170.440,137.200 170.000 C 137.200 169.560,137.020 169.200,136.800 169.200 C 136.580 169.200,136.400 168.851,136.400 168.424 C 136.400 167.997,136.220 167.536,136.000 167.400 C 135.780 167.264,135.600 166.713,135.600 166.176 C 135.600 165.639,135.420 165.200,135.200 165.200 C 134.980 165.200,134.800 164.761,134.800 164.224 C 134.800 163.687,134.620 163.136,134.400 163.000 C 134.180 162.864,134.000 162.313,134.000 161.776 C 134.000 161.239,133.820 160.800,133.600 160.800 C 133.380 160.800,133.200 160.260,133.200 159.600 C 133.200 158.940,133.020 158.400,132.800 158.400 C 132.580 158.400,132.400 157.680,132.400 156.800 C 132.400 155.920,132.220 155.200,132.000 155.200 C 131.780 155.200,131.600 154.221,131.600 153.024 C 131.600 151.827,131.420 150.736,131.200 150.600 C 130.951 150.446,130.800 146.663,130.800 140.576 C 130.800 134.325,130.944 130.800,131.200 130.800 C 131.420 130.800,131.600 129.911,131.600 128.824 C 131.600 127.737,131.780 126.736,132.000 126.600 C 132.220 126.464,132.400 125.553,132.400 124.576 C 132.400 123.599,132.580 122.800,132.800 122.800 C 133.020 122.800,133.200 122.350,133.200 121.800 C 133.200 121.250,133.380 120.800,133.600 120.800 C 133.820 120.800,134.000 120.271,134.000 119.624 C 134.000 118.977,134.180 118.336,134.400 118.200 C 134.620 118.064,134.800 117.513,134.800 116.976 C 134.800 116.439,134.980 116.000,135.200 116.000 C 135.420 116.000,135.600 115.651,135.600 115.224 C 135.600 114.797,135.780 114.336,136.000 114.200 C 136.220 114.064,136.400 113.513,136.400 112.976 C 136.400 112.439,136.580 112.000,136.800 112.000 C 137.020 112.000,137.200 111.640,137.200 111.200 C 137.200 110.760,137.380 110.400,137.600 110.400 C 137.820 110.400,138.000 110.040,138.000 109.600 C 138.000 109.160,138.159 108.800,138.353 108.800 C 138.548 108.800,138.807 108.485,138.929 108.100 C 139.174 107.326,140.459 105.114,140.846 104.800 C 140.981 104.690,141.219 104.195,141.373 103.700 C 141.528 103.205,141.822 102.800,142.027 102.800 C 142.232 102.800,142.400 102.480,142.400 102.088 C 142.400 101.697,142.760 101.117,143.200 100.800 C 143.640 100.483,144.000 99.979,144.000 99.680 C 144.000 99.382,144.720 98.446,145.600 97.600 C 146.480 96.754,147.200 95.890,147.200 95.680 C 147.200 95.469,147.920 94.555,148.800 93.648 C 149.680 92.741,150.400 91.861,150.400 91.692 C 150.400 91.055,100.367 41.394,99.602 41.272 C 99.161 41.202,98.800 41.307,98.800 41.506 " stroke="none" fill="#f8981b" fill-rule="evenodd"></path><path id="path2" d="M212.400 209.703 C 212.400 209.979,193.590 229.012,170.600 251.998 C 147.610 274.984,128.800 294.012,128.800 294.282 C 128.800 294.552,129.430 295.403,130.200 296.173 C 130.970 296.943,131.600 297.669,131.600 297.787 C 131.600 297.904,131.915 298.338,132.300 298.751 C 132.685 299.164,134.260 300.885,135.800 302.576 C 137.340 304.266,139.725 306.805,141.100 308.217 C 142.475 309.630,143.600 310.933,143.600 311.114 C 143.600 311.296,144.185 312.088,144.900 312.876 C 146.354 314.478,148.048 316.471,151.465 320.600 C 152.739 322.140,154.460 324.068,155.291 324.884 C 156.121 325.700,156.800 326.533,156.800 326.736 C 156.800 326.938,157.520 327.845,158.400 328.752 C 159.280 329.659,160.000 330.547,160.000 330.725 C 160.000 330.903,160.323 331.398,160.719 331.825 C 161.114 332.251,162.508 334.040,163.816 335.800 C 165.125 337.560,166.295 339.090,166.417 339.200 C 166.539 339.310,167.075 340.030,167.608 340.800 C 168.142 341.570,168.898 342.549,169.289 342.975 C 169.680 343.402,170.000 343.947,170.000 344.187 C 170.000 344.427,170.360 344.883,170.800 345.200 C 171.240 345.517,171.600 346.057,171.600 346.400 C 171.600 346.743,171.960 347.283,172.400 347.600 C 172.840 347.917,173.200 348.414,173.200 348.705 C 173.200 348.996,173.560 349.620,174.000 350.092 C 174.440 350.564,174.800 351.187,174.800 351.475 C 174.800 351.764,174.980 352.000,175.200 352.000 C 175.420 352.000,175.600 352.236,175.600 352.525 C 175.600 352.813,175.960 353.436,176.400 353.908 C 176.840 354.380,177.200 354.893,177.200 355.047 C 177.200 355.267,180.284 361.729,182.854 366.895 C 183.044 367.277,183.200 367.862,183.200 368.195 C 183.200 368.528,183.380 368.800,183.600 368.800 C 183.820 368.800,184.000 369.239,184.000 369.776 C 184.000 370.313,184.180 370.864,184.400 371.000 C 184.620 371.136,184.800 371.676,184.800 372.200 C 184.800 372.724,184.960 373.252,185.156 373.373 C 185.509 373.591,185.834 375.040,186.259 378.300 C 186.381 379.235,186.625 380.000,186.800 380.000 C 186.976 380.000,187.224 381.575,187.350 383.500 C 187.962 392.845,188.320 393.943,191.902 397.445 C 194.082 399.577,195.133 400.000,198.250 400.000 L 200.000 400.000 200.000 311.697 L 200.000 223.395 206.600 216.773 C 212.671 210.683,213.885 209.200,212.800 209.200 C 212.580 209.200,212.400 209.426,212.400 209.703 " stroke="none" fill="#59c36c" fill-rule="evenodd"></path><path id="path3" d="M300.403 122.200 C 283.347 139.250,269.206 153.200,268.977 153.200 C 268.421 153.200,267.600 155.543,267.600 157.128 C 267.600 157.828,267.420 158.400,267.200 158.400 C 266.980 158.400,266.800 158.839,266.800 159.376 C 266.800 159.913,266.620 160.464,266.400 160.600 C 266.180 160.736,266.000 161.276,266.000 161.800 C 266.000 162.324,265.820 162.864,265.600 163.000 C 265.380 163.136,265.200 163.687,265.200 164.224 C 265.200 164.761,265.020 165.200,264.800 165.200 C 264.580 165.200,264.400 165.472,264.400 165.805 C 264.400 166.138,264.220 166.768,264.000 167.205 C 263.780 167.642,263.420 168.358,263.200 168.795 C 262.980 169.232,262.800 169.862,262.800 170.195 C 262.800 170.528,262.620 170.800,262.400 170.800 C 262.180 170.800,262.000 171.145,262.000 171.567 C 262.000 171.988,261.865 172.393,261.700 172.467 C 261.227 172.677,260.000 175.056,260.000 175.762 C 260.000 176.113,259.820 176.400,259.600 176.400 C 259.380 176.400,259.200 176.630,259.200 176.912 C 259.200 177.193,258.840 177.683,258.400 178.000 C 257.960 178.317,257.600 178.762,257.599 178.988 C 257.599 179.215,257.059 180.030,256.400 180.800 C 255.741 181.570,255.201 182.349,255.201 182.531 C 255.200 182.714,254.525 183.528,253.700 184.341 C 252.875 185.154,251.581 186.625,250.825 187.610 C 250.069 188.594,249.006 189.760,248.463 190.200 C 247.919 190.640,246.879 191.585,246.151 192.300 C 245.423 193.015,244.705 193.600,244.557 193.600 C 244.408 193.600,243.771 194.140,243.140 194.800 C 242.509 195.460,241.843 196.000,241.659 196.000 C 241.475 196.000,240.801 196.450,240.162 197.000 C 239.523 197.549,238.815 197.999,238.588 198.000 C 238.362 198.000,237.917 198.360,237.600 198.800 C 237.283 199.240,236.703 199.600,236.312 199.600 C 235.920 199.600,235.600 199.780,235.600 200.000 C 235.600 200.220,235.322 200.400,234.983 200.400 C 234.644 200.400,233.980 200.760,233.508 201.200 C 233.036 201.640,232.413 202.000,232.125 202.000 C 231.836 202.000,231.600 202.180,231.600 202.400 C 231.600 202.620,231.240 202.800,230.800 202.800 C 230.360 202.800,230.000 202.980,230.000 203.200 C 230.000 203.420,229.651 203.600,229.224 203.600 C 228.797 203.600,228.336 203.780,228.200 204.000 C 228.064 204.220,227.603 204.400,227.176 204.400 C 226.749 204.400,226.400 204.580,226.400 204.800 C 226.400 205.020,226.040 205.200,225.600 205.200 C 225.160 205.200,224.800 205.380,224.800 205.600 C 224.800 205.820,224.260 206.000,223.600 206.000 C 222.940 206.000,222.400 206.180,222.400 206.400 C 222.400 206.620,221.860 206.800,221.200 206.800 C 220.540 206.800,220.000 206.980,220.000 207.200 C 220.000 207.420,219.460 207.600,218.800 207.600 C 218.140 207.600,217.600 207.780,217.600 208.000 C 217.600 208.220,216.830 208.400,215.888 208.400 C 214.554 208.400,214.047 208.599,213.588 209.300 C 213.265 209.795,210.075 213.169,206.500 216.797 L 200.000 223.395 200.000 311.741 L 200.000 400.087 203.070 399.932 C 205.012 399.834,206.201 399.598,206.304 399.289 C 206.393 399.020,206.722 398.800,207.033 398.800 C 207.345 398.800,207.600 398.620,207.600 398.400 C 207.600 398.180,207.793 398.000,208.029 398.000 C 208.631 398.000,209.600 396.962,209.600 396.317 C 209.600 396.020,209.960 395.517,210.400 395.200 C 210.840 394.883,211.200 394.303,211.200 393.912 C 211.200 393.520,211.380 393.200,211.600 393.200 C 211.822 393.200,212.000 392.141,212.000 390.824 C 212.000 389.517,212.180 388.336,212.400 388.200 C 212.621 388.064,212.800 386.270,212.800 384.200 C 212.800 382.130,212.979 380.336,213.200 380.200 C 213.420 380.064,213.600 379.243,213.600 378.376 C 213.600 377.509,213.780 376.800,214.000 376.800 C 214.220 376.800,214.400 376.181,214.400 375.424 C 214.400 374.667,214.580 373.936,214.800 373.800 C 215.020 373.664,215.200 373.113,215.200 372.576 C 215.200 372.039,215.380 371.600,215.600 371.600 C 215.820 371.600,216.000 371.060,216.000 370.400 C 216.000 369.740,216.180 369.200,216.400 369.200 C 216.620 369.200,216.800 368.840,216.800 368.400 C 216.800 367.960,216.980 367.600,217.200 367.600 C 217.420 367.600,217.600 367.060,217.600 366.400 C 217.600 365.740,217.780 365.200,218.000 365.200 C 218.220 365.200,218.400 364.840,218.400 364.400 C 218.400 363.960,218.580 363.600,218.800 363.600 C 219.020 363.600,219.200 363.240,219.200 362.800 C 219.200 362.360,219.380 362.000,219.600 362.000 C 219.820 362.000,220.000 361.640,220.000 361.200 C 220.000 360.760,220.180 360.400,220.400 360.400 C 220.620 360.400,220.800 360.040,220.800 359.600 C 220.800 359.160,220.980 358.800,221.200 358.800 C 221.420 358.800,221.600 358.623,221.600 358.407 C 221.600 358.191,222.297 356.875,223.149 355.484 C 224.000 354.092,224.823 352.559,224.976 352.077 C 225.129 351.595,225.422 351.200,225.627 351.200 C 225.832 351.200,226.000 350.880,226.000 350.488 C 226.000 350.097,226.360 349.517,226.800 349.200 C 227.240 348.883,227.600 348.343,227.600 348.000 C 227.600 347.657,227.960 347.117,228.400 346.800 C 228.840 346.483,229.200 345.943,229.200 345.600 C 229.200 345.257,229.560 344.717,230.000 344.400 C 230.440 344.083,230.800 343.575,230.800 343.272 C 230.800 342.969,231.340 342.217,232.000 341.600 C 232.660 340.983,233.200 340.281,233.200 340.040 C 233.200 339.798,233.341 339.600,233.514 339.600 C 233.686 339.600,234.133 339.082,234.507 338.449 C 234.881 337.816,235.730 336.717,236.394 336.007 C 237.057 335.297,237.600 334.563,237.600 334.376 C 237.600 334.189,238.026 333.610,238.548 333.089 C 239.069 332.568,240.013 331.344,240.645 330.371 C 241.277 329.397,242.291 328.123,242.897 327.540 C 243.504 326.956,244.000 326.191,244.000 325.840 C 244.000 325.488,244.180 325.200,244.401 325.200 C 244.849 325.200,248.000 321.970,248.000 321.511 C 248.000 321.350,248.990 320.196,250.200 318.947 C 251.410 317.698,252.400 316.528,252.400 316.348 C 252.400 316.168,253.165 315.251,254.100 314.309 C 255.035 313.368,256.422 311.788,257.182 310.799 C 257.942 309.810,259.300 308.280,260.198 307.400 C 261.097 306.520,262.273 305.170,262.812 304.400 C 263.351 303.630,264.919 301.872,266.296 300.493 C 267.673 299.114,268.800 297.826,268.800 297.632 C 268.800 297.438,270.150 295.876,271.800 294.161 C 273.450 292.445,274.800 290.913,274.800 290.757 C 274.800 290.600,275.790 289.442,277.000 288.182 C 278.210 286.923,279.200 285.738,279.200 285.548 C 279.200 285.359,280.100 284.285,281.200 283.161 C 282.300 282.038,283.200 280.943,283.200 280.728 C 283.200 280.513,283.920 279.646,284.800 278.800 C 285.680 277.954,286.400 277.097,286.400 276.895 C 286.400 276.693,287.120 275.793,288.000 274.895 C 288.880 273.997,289.600 273.151,289.600 273.014 C 289.600 272.877,290.033 272.298,290.562 271.728 C 291.090 271.158,291.765 270.221,292.062 269.646 C 292.358 269.071,293.095 268.123,293.700 267.540 C 294.305 266.956,294.800 266.263,294.800 266.000 C 294.800 265.737,295.340 265.017,296.000 264.400 C 296.660 263.783,297.200 263.080,297.200 262.836 C 297.200 262.592,297.740 261.828,298.400 261.137 C 299.060 260.446,299.600 259.681,299.600 259.437 C 299.600 259.192,299.960 258.768,300.400 258.493 C 300.840 258.218,301.200 257.764,301.200 257.485 C 301.200 257.205,301.560 256.717,302.000 256.400 C 302.440 256.083,302.800 255.638,302.800 255.412 C 302.801 255.185,303.246 254.483,303.789 253.851 C 304.333 253.219,304.884 252.364,305.016 251.951 C 305.147 251.538,305.400 251.200,305.578 251.200 C 305.757 251.200,306.127 250.660,306.400 250.000 C 306.673 249.340,307.024 248.800,307.178 248.800 C 307.333 248.800,307.958 247.720,308.568 246.400 C 309.177 245.080,309.839 244.000,310.038 244.000 C 310.237 244.000,310.400 243.680,310.400 243.288 C 310.400 242.897,310.760 242.317,311.200 242.000 C 311.640 241.683,312.000 241.193,312.000 240.912 C 312.000 240.630,312.180 240.400,312.400 240.400 C 312.620 240.400,312.800 240.122,312.800 239.783 C 312.800 239.444,313.160 238.780,313.600 238.308 C 314.040 237.836,314.400 237.213,314.400 236.925 C 314.400 236.636,314.580 236.400,314.800 236.400 C 315.020 236.400,315.200 236.040,315.200 235.600 C 315.200 235.160,315.380 234.800,315.600 234.800 C 315.820 234.800,316.000 234.522,316.000 234.183 C 316.000 233.844,316.360 233.180,316.800 232.708 C 317.240 232.236,317.600 231.613,317.600 231.325 C 317.600 231.036,317.780 230.800,318.000 230.800 C 318.220 230.800,318.400 230.440,318.400 230.000 C 318.400 229.560,318.580 229.200,318.800 229.200 C 319.020 229.200,319.200 228.840,319.200 228.400 C 319.200 227.960,319.380 227.600,319.600 227.600 C 319.820 227.600,320.000 227.255,320.000 226.833 C 320.000 226.412,320.143 226.007,320.318 225.933 C 320.875 225.700,324.842 217.251,325.078 215.796 C 325.203 215.028,325.461 214.400,325.652 214.400 C 325.844 214.400,326.000 214.040,326.000 213.600 C 326.000 213.160,326.180 212.800,326.400 212.800 C 326.620 212.800,326.800 212.440,326.800 212.000 C 326.800 211.560,326.980 211.200,327.200 211.200 C 327.420 211.200,327.600 210.660,327.600 210.000 C 327.600 209.340,327.780 208.800,328.000 208.800 C 328.220 208.800,328.400 208.440,328.400 208.000 C 328.400 207.560,328.580 207.200,328.800 207.200 C 329.020 207.200,329.200 206.750,329.200 206.200 C 329.200 205.650,329.380 205.200,329.600 205.200 C 329.820 205.200,330.000 204.660,330.000 204.000 C 330.000 203.340,330.180 202.800,330.400 202.800 C 330.620 202.800,330.800 202.438,330.800 201.995 C 330.800 201.552,331.008 200.787,331.262 200.295 C 332.272 198.341,332.400 197.975,332.400 197.029 C 332.400 196.489,332.580 195.936,332.800 195.800 C 333.020 195.664,333.200 195.023,333.200 194.376 C 333.200 193.729,333.380 193.200,333.600 193.200 C 333.820 193.200,334.000 192.660,334.000 192.000 C 334.000 191.340,334.180 190.800,334.400 190.800 C 334.620 190.800,334.800 190.170,334.800 189.400 C 334.800 188.630,334.980 188.000,335.200 188.000 C 335.420 188.000,335.600 187.381,335.600 186.624 C 335.600 185.867,335.780 185.136,336.000 185.000 C 336.220 184.864,336.400 184.144,336.400 183.400 C 336.400 182.656,336.580 181.936,336.800 181.800 C 337.020 181.664,337.200 180.854,337.200 180.000 C 337.200 179.146,337.380 178.336,337.600 178.200 C 337.820 178.064,338.000 177.153,338.000 176.176 C 338.000 175.199,338.180 174.400,338.400 174.400 C 338.620 174.400,338.800 173.421,338.800 172.224 C 338.800 171.027,338.980 169.936,339.200 169.800 C 339.420 169.664,339.600 168.404,339.600 167.000 C 339.600 165.596,339.780 164.336,340.000 164.200 C 340.220 164.064,340.400 162.469,340.400 160.656 C 340.400 158.843,340.584 157.176,340.809 156.951 C 341.357 156.403,341.037 127.364,340.433 122.800 C 340.186 120.930,339.881 118.410,339.757 117.200 C 339.632 115.990,339.365 114.829,339.165 114.620 C 338.964 114.411,338.800 113.466,338.800 112.520 C 338.800 111.574,338.620 110.800,338.400 110.800 C 338.180 110.800,338.000 110.080,338.000 109.200 C 338.000 108.320,337.820 107.600,337.600 107.600 C 337.380 107.600,337.200 106.880,337.200 106.000 C 337.200 105.120,337.020 104.400,336.800 104.400 C 336.580 104.400,336.400 103.781,336.400 103.024 C 336.400 102.267,336.220 101.536,336.000 101.400 C 335.780 101.264,335.600 100.623,335.600 99.976 C 335.600 99.329,335.420 98.800,335.200 98.800 C 334.980 98.800,334.800 98.260,334.800 97.600 C 334.800 96.940,334.620 96.400,334.400 96.400 C 334.180 96.400,334.000 95.961,334.000 95.424 C 334.000 94.887,333.820 94.336,333.600 94.200 C 333.380 94.064,333.200 93.591,333.200 93.148 C 333.200 92.342,332.341 91.200,331.735 91.200 C 331.557 91.200,317.458 105.150,300.403 122.200 M187.228 387.076 C 187.213 387.558,187.380 388.064,187.600 388.200 C 188.073 388.492,188.073 388.101,187.600 387.000 C 187.269 386.229,187.255 386.231,187.228 387.076 M191.002 397.202 C 191.402 397.644,191.811 397.922,191.912 397.821 C 192.128 397.605,190.988 396.400,190.567 396.400 C 190.407 396.400,190.603 396.761,191.002 397.202 " stroke="none" fill="#04a46c" fill-rule="evenodd"></path><path id="path4" d="M99.600 40.767 C 99.600 40.968,99.778 41.193,99.996 41.267 C 100.215 41.340,111.729 52.731,125.584 66.580 C 139.438 80.428,150.910 91.624,151.075 91.458 C 151.241 91.292,151.134 91.007,150.838 90.823 C 150.541 90.640,139.023 79.220,125.242 65.445 C 101.468 41.682,99.600 39.884,99.600 40.767 " stroke="none" fill="#578581" fill-rule="evenodd"></path></g></svg>